<svg xmlns="http://www.w3.org/2000/svg" width="100" height="100" viewBox="0 0 100 100" fill="none">
<path d="M79.6663 59.1498C79.677 70.9087 74.5125 88.5507 48.1652 88.9134C39.0246 89.0393 25.8903 87.8588 19.0459 74.2209C18.1336 72.4032 17.2906 70.2074 16.61 67.7864C16.091 65.9404 15.6665 63.9634 15.3776 61.9233C15.1326 60.1929 14.9852 58.417 14.9607 56.637C14.8512 53.1469 15.3897 48.6737 17.2367 44.2576C17.5262 43.5901 20.3129 8.56924 20.8939 10.9132L38.1743 29.891C41.4587 29.1669 44.7034 28.7605 48.5897 28.7601C48.6438 28.7601 48.696 28.7631 48.7463 28.769C67.5143 29.7858 70.4253 11.3629 72.6772 11.3627C74.3243 11.3401 77.0288 35.1887 77.5103 44.5902C78.7313 50.7071 79.6622 54.6653 79.6663 59.1498Z" fill="white"/>
<path d="M48.5897 28.7601C54.4983 28.7596 38.128 64.5501 34.6708 64.5977C31.905 64.6358 23.2351 70.8312 19.0459 74.2209M48.5897 28.7601C44.7034 28.7605 41.4587 29.1669 38.1743 29.891M48.5897 28.7601C67.4981 29.8882 70.4191 11.3629 72.6772 11.3627C74.3243 11.3401 77.0288 35.1887 77.5103 44.5902C78.7313 50.7071 79.6622 54.6653 79.6663 59.1498C79.677 70.9087 74.5125 88.5507 48.1652 88.9134C39.0246 89.0393 25.8903 87.8588 19.0459 74.2209M19.0459 74.2209C18.1336 72.4032 17.2906 70.2074 16.61 67.7864M19.0459 74.2209L11.4182 78.442M17.2367 44.2576C15.3897 48.6737 14.8512 53.1469 14.9607 56.637C14.9852 58.417 15.1326 60.1929 15.3776 61.9233M17.2367 44.2576C17.5262 43.5901 20.3129 8.56924 20.8939 10.9132L38.1743 29.891M17.2367 44.2576C20.1369 37.3236 26.133 32.5457 38.1743 29.891M15.3776 61.9233L5.70258 62.0565M15.3776 61.9233C15.6665 63.9634 16.091 65.9404 16.61 67.7864M16.61 67.7864L8.01958 70.8447" stroke="black" stroke-width="2" stroke-linecap="round"/>
<path d="M22.4087 78C20.1584 73.5909 17.1966 64.2689 17.1047 57.5928C17.0087 54.5635 17.4061 50.7984 18.7303 46.9684L22.4087 13.1158L40.8871 28.657C44.0342 27.9743 51.1346 28.3738 54.5 30.5C59 33.343 40.9428 62.0011 38.5631 64.4021C36.519 66.4645 26.7004 74.586 22.4087 78Z" fill="black"/>
<path d="M40.8871 28.657C28.6879 31.3036 22.4112 38.1451 19.4389 45.1276C19.1778 45.741 18.9422 46.3555 18.7303 46.9684M40.8871 28.657C44.0342 27.9743 51.1346 28.3738 54.5 30.5C59 33.343 40.9428 62.0011 38.5631 64.4021C36.519 66.4645 26.7004 74.586 22.4087 78C20.1584 73.5909 17.1966 64.2689 17.1047 57.5928C17.0087 54.5635 17.4061 50.7984 18.7303 46.9684M40.8871 28.657L22.4087 13.1158L18.7303 46.9684" stroke="black" stroke-width="3"/>
<path d="M31.9644 50.0001C28.6609 50.0456 25.3632 48.0001 25.3633 55.7029C25.3877 57.4788 26.2816 62.2029 31.9643 62.1247C35.5159 62.0758 37.194 58.896 37.194 54.948C37.194 51 36.2263 49.9415 31.9644 50.0001Z" fill="white" stroke="white" stroke-width="2"/>
<path d="M56.5363 55.0225C56.6276 61.6522 61.7806 63.239 64.3457 63.2037C67.3054 63.163 72.6084 61.3138 72.5188 54.8025C72.4145 47.2256 67.6491 50.4545 64.3457 50.5C61.0423 50.5455 56.4451 48.3927 56.5363 55.0225Z" fill="white" stroke="black" stroke-width="2"/>
<path d="M63.0348 55.5744C63.0591 57.3424 64.2052 57.7687 64.7752 57.7608C65.433 57.7518 66.6103 57.2619 66.5864 55.5256C66.5586 53.5051 65.4442 53.0152 64.7101 53.0253C63.976 53.0354 63.0104 53.8065 63.0348 55.5744Z" fill="#3DAF7E" stroke="black" stroke-width="2"/>
<path d="M29.0348 55.5744C29.0591 57.3424 30.2052 57.7687 30.7752 57.7608C31.433 57.7518 32.6103 57.2619 32.5864 55.5256C32.5586 53.5051 31.4442 53.0152 30.7101 53.0253C29.976 53.0354 29.0104 53.8065 29.0348 55.5744Z" fill="#3DAF7E" stroke="black" stroke-width="2"/>
<path d="M79.8569 58.1037L89.4651 56.9654M79.8699 64.9743L86.9837 66.815M77.9944 72.5926L82 75.5" stroke="black" stroke-width="2" stroke-linecap="round"/>
<path d="M53.0037 68.6415L46.3677 75.0399L41.2435 68.8034C41.2283 67.7004 52.9961 68.0901 53.0037 68.6415Z" fill="black"/>
<path d="M40.1563 79.5385C42.5008 78.9546 46.4132 78.3491 46.3677 75.0399M46.3677 75.0399C46.4345 79.8934 51.9089 78.8251 53.4921 79.9066M46.3677 75.0399L53.0037 68.6415C52.9961 68.0901 41.2283 67.7004 41.2435 68.8034L46.3677 75.0399Z" stroke="black" stroke-width="2" stroke-linecap="round"/>
</svg>
